<?xml version="1.0" standalone="no"?>
<!DOCTYPE svg PUBLIC "-//W3C//DTD SVG 20010904//EN"
 "http://www.w3.org/TR/2001/REC-SVG-20010904/DTD/svg10.dtd">
<svg version="1.0" xmlns="http://www.w3.org/2000/svg"
 width="96.000000pt" height="96.000000pt" viewBox="0 0 96.000000 96.000000"
 preserveAspectRatio="xMidYMid meet">

<g transform="translate(0.000000,96.000000) scale(0.100000,-0.100000)"
fill="#000000" stroke="none">
<path d="M302 914 c-12 -8 -22 -23 -22 -33 0 -10 -11 -26 -25 -35 -24 -16 -25
-21 -25 -121 0 -100 1 -105 25 -121 39 -26 30 -34 -40 -34 -83 0 -158 -16
-190 -41 -25 -20 -25 -23 -25 -155 0 -119 2 -136 19 -153 27 -27 90 -43 181
-46 52 -2 76 -7 78 -16 3 -8 30 -40 60 -72 l56 -57 261 0 c220 0 264 2 283 16
l22 15 0 419 0 419 -22 15 c-19 14 -67 16 -318 16 -251 0 -299 -2 -318 -16z
m628 -434 l0 -410 -259 0 -260 0 -3 48 -3 47 -55 5 c-57 6 -57 6 13 32 15 6
32 19 37 29 6 10 10 73 10 141 0 142 -7 160 -70 179 -28 9 -40 18 -40 31 0 17
13 18 225 18 264 0 245 -10 245 134 0 132 11 126 -257 126 -194 0 -226 4 -206
23 3 4 145 7 315 7 l308 0 0 -410z m-230 245 l0 -95 -215 0 -215 0 0 95 0 95
215 0 215 0 0 -95z m-364 -206 c102 -49 -102 -105 -239 -65 -87 25 -87 48 0
72 58 17 198 12 239 -7z m-146 -112 c41 -1 92 2 113 6 33 7 37 6 37 -12 0 -25
-58 -35 -175 -29 -85 4 -135 24 -135 52 0 11 7 11 43 -1 23 -8 76 -16 117 -16z
m-80 -68 c54 -13 150 -10 210 5 60 16 65 15 56 -9 -18 -49 -219 -69 -304 -31
-28 13 -42 25 -42 38 0 16 4 18 23 12 12 -4 38 -11 57 -15z m-35 -74 c45 -16
193 -20 242 -6 30 9 31 8 24 -12 -11 -29 -59 -40 -161 -35 -91 4 -142 22 -146
51 -1 9 -2 17 -1 17 1 0 20 -7 42 -15z m305 -150 c0 -14 -1 -25 -3 -25 -2 0
-14 11 -27 25 l-23 25 26 0 c22 0 27 -5 27 -25z"/>
<path d="M561 509 c-12 -19 -21 -38 -21 -42 0 -18 35 -67 47 -67 17 0 16 5 -2
40 -14 27 -14 32 1 55 12 19 14 29 6 37 -8 8 -17 1 -31 -23z"/>
<path d="M660 478 c-13 -35 -25 -69 -27 -75 -3 -7 1 -13 9 -13 9 0 26 27 41
68 31 78 32 82 13 82 -7 0 -23 -27 -36 -62z"/>
<path d="M746 532 c-4 -6 1 -23 10 -38 16 -24 16 -27 1 -54 -21 -34 -21 -40
-2 -40 15 0 45 48 45 72 0 22 -46 73 -54 60z"/>
<path d="M473 353 c-43 -17 9 -23 197 -23 190 0 240 6 194 24 -19 7 -373 7
-391 -1z"/>
<path d="M460 280 c0 -6 77 -10 210 -10 133 0 210 4 210 10 0 6 -77 10 -210
10 -133 0 -210 -4 -210 -10z"/>
<path d="M463 218 c6 -19 408 -19 415 0 3 9 -43 12 -208 12 -165 0 -211 -3
-207 -12z"/>
<path d="M465 160 c-11 -18 18 -20 214 -18 145 2 195 6 199 16 5 15 -403 18
-413 2z"/>
<path d="M280 725 l0 -84 145 1 c92 1 148 5 154 12 4 6 9 27 10 46 1 19 5 51
10 70 8 31 9 27 10 -34 1 -54 -3 -71 -16 -81 -14 -11 -8 -13 40 -11 48 1 57 4
57 19 0 11 -9 21 -19 24 -15 4 -20 16 -23 58 -1 29 0 51 5 48 4 -2 7 -24 7
-48 0 -29 5 -45 15 -49 12 -4 15 5 15 53 l0 57 -145 1 c-80 0 -143 -3 -140 -7
2 -4 -15 -4 -38 1 -90 17 -87 20 -87 -76z m50 60 c-7 -8 -10 -24 -7 -35 3 -11
1 -18 -4 -14 -13 8 -11 38 3 52 17 17 23 15 8 -3z m150 12 c0 -2 -10 -12 -22
-23 l-23 -19 19 23 c18 21 26 27 26 19z m95 -17 c10 -11 16 -20 13 -20 -3 0
-13 9 -23 20 -10 11 -16 20 -13 20 3 0 13 -9 23 -20z m-168 -35 c16 -12 22
-12 26 -2 3 6 6 -1 6 -16 1 -17 12 -38 29 -54 21 -20 22 -23 5 -15 -11 7 -31
27 -42 46 -12 19 -34 39 -49 45 -15 5 -20 10 -12 10 9 1 25 -6 37 -14z m141
-2 c2 -7 -1 -13 -8 -13 -6 0 -8 5 -5 10 3 6 -3 10 -15 10 -22 0 -36 -22 -25
-41 6 -8 10 -7 16 2 7 11 9 10 9 -3 0 -22 -13 -23 -30 -3 -19 23 -3 57 28 53
14 -2 27 -9 30 -15z m-169 -39 c11 -11 -11 -15 -24 -4 -8 7 -22 10 -30 6 -10
-3 -14 -2 -9 5 5 9 52 5 63 -7z m-35 -53 c-3 -3 -15 6 -27 18 l-22 24 27 -19
c14 -10 24 -21 22 -23z"/>
</g>
</svg>
